<?xml version="1.0" encoding="UTF-8" standalone="no"?>
<svg
   height="24"
   viewBox="0 -960 960 960"
   width="24"
   version="1.1"
   id="svg1"
   sodipodi:docname="icon-press (copy 1).svg"
   inkscape:version="1.3.2 (091e20ef0f, 2023-11-25, custom)"
   xmlns:inkscape="http://www.inkscape.org/namespaces/inkscape"
   xmlns:sodipodi="http://sodipodi.sourceforge.net/DTD/sodipodi-0.dtd"
   xmlns="http://www.w3.org/2000/svg"
   xmlns:svg="http://www.w3.org/2000/svg">
  <defs
     id="defs1" />
  <sodipodi:namedview
     id="namedview1"
     pagecolor="#ffffff"
     bordercolor="#000000"
     borderopacity="0.25"
     inkscape:showpageshadow="2"
     inkscape:pageopacity="0.0"
     inkscape:pagecheckerboard="0"
     inkscape:deskcolor="#d1d1d1"
     inkscape:zoom="16.5625"
     inkscape:cx="12.649057"
     inkscape:cy="8.6037736"
     inkscape:window-width="1920"
     inkscape:window-height="1015"
     inkscape:window-x="0"
     inkscape:window-y="0"
     inkscape:window-maximized="1"
     inkscape:current-layer="svg1" />
  <path
     d="M280-120v-123q-104-14-172-93T40-520h80q0 83 58.5 141.5T320-320h10q5 0 10-1 13 20 28 37.5t32 32.5q-10 3-19.5 4.5T360-243v123h-80Zm20-282q-43-8-71.5-40.5T200-520v-240q0-50 35-85t85-35q50 0 85 35t35 85v160H280v80q0 31 5 60.5t15 57.5Zm340 2q-50 0-85-35t-35-85v-240q0-50 35-85t85-35q50 0 85 35t35 85v240q0 50-35 85t-85 35Zm-40 280v-123q-104-14-172-93t-68-184h80q0 83 58.5 141.5T640-320q83 0 141.5-58.5T840-520h80q0 105-68 184t-172 93v123h-80Zm40-360q17 0 28.5-11.5T680-520v-240q0-17-11.5-28.5T640-800q-17 0-28.5 11.5T600-760v240q0 17 11.5 28.5T640-480Zm0-160Z"
     id="path1"
     style="fill:#272a31;fill-opacity:1" />
</svg>
