<?xml version="1.0" encoding="UTF-8" standalone="no"?>
<svg
   width="24"
   height="24"
   viewBox="0 0 24 24"
   version="1.1"
   id="svg1"
   sodipodi:docname="icon-medal (copy 1).svg"
   inkscape:version="1.3.2 (091e20ef0f, 2023-11-25, custom)"
   xmlns:inkscape="http://www.inkscape.org/namespaces/inkscape"
   xmlns:sodipodi="http://sodipodi.sourceforge.net/DTD/sodipodi-0.dtd"
   xmlns="http://www.w3.org/2000/svg"
   xmlns:svg="http://www.w3.org/2000/svg">
  <defs
     id="defs1" />
  <sodipodi:namedview
     id="namedview1"
     pagecolor="#ffffff"
     bordercolor="#000000"
     borderopacity="0.25"
     inkscape:showpageshadow="2"
     inkscape:pageopacity="0.0"
     inkscape:pagecheckerboard="0"
     inkscape:deskcolor="#d1d1d1"
     inkscape:zoom="11.711456"
     inkscape:cx="-6.0197468"
     inkscape:cy="18.656946"
     inkscape:window-width="1920"
     inkscape:window-height="1015"
     inkscape:window-x="0"
     inkscape:window-y="0"
     inkscape:window-maximized="1"
     inkscape:current-layer="svg1" />
  <path
     d="M12 10c-3.865 0-7 3.134-7 7s3.135 7 7 7 7-3.134 7-7-3.135-7-7-7zm0 12c-2.762 0-5-2.239-5-5s2.238-5 5-5 5 2.239 5 5-2.238 5-5 5zm1.484-4.315l1.516-1.457-2.083-.287-.917-1.892-.917 1.892-2.083.287 1.516 1.457-.369 2.07 1.853-.992 1.854.992-.37-2.07zm1.62-9.822l-2.48-3.329 3.376-4.534h5l-5.896 7.863zm-2.974.137h1.828l-5.958-8h-1.869l5.999 8zm-7.249-8h-1.881l6 8h1.881l-6-8z"
     id="path1"
     style="fill:#272a31;fill-opacity:1" />
</svg>
