<?xml version="1.0" encoding="UTF-8" standalone="no"?>
<svg
   width="24"
   height="24"
   viewBox="0 0 24 24"
   version="1.1"
   id="svg1"
   sodipodi:docname="icon-camera.svg"
   inkscape:version="1.3.2 (091e20ef0f, 2023-11-25, custom)"
   xmlns:inkscape="http://www.inkscape.org/namespaces/inkscape"
   xmlns:sodipodi="http://sodipodi.sourceforge.net/DTD/sodipodi-0.dtd"
   xmlns="http://www.w3.org/2000/svg"
   xmlns:svg="http://www.w3.org/2000/svg">
  <defs
     id="defs1" />
  <sodipodi:namedview
     id="namedview1"
     pagecolor="#ffffff"
     bordercolor="#000000"
     borderopacity="0.25"
     inkscape:showpageshadow="2"
     inkscape:pageopacity="0.0"
     inkscape:pagecheckerboard="0"
     inkscape:deskcolor="#d1d1d1"
     inkscape:zoom="8.28125"
     inkscape:cx="12.015094"
     inkscape:cy="12.015094"
     inkscape:window-width="1920"
     inkscape:window-height="1015"
     inkscape:window-x="0"
     inkscape:window-y="0"
     inkscape:window-maximized="1"
     inkscape:current-layer="svg1" />
  <path
     d="M13.5 11c.276 0 .5.224.5.5v7c0 .276-.224.5-.5.5h-11c-.276 0-.5-.224-.5-.5v-7c0-.276.224-.5.5-.5h11zm2.5 0c0-1.104-.896-2-2-2h-12c-1.104 0-2 .896-2 2v8c0 1.104.896 2 2 2h12c1.104 0 2-.896 2-2v-8zm-4 3h-8v-1h8v1zm-3.757-10h2.757v2h-2.103c-.887 0-1.245.423-1.85 1h-3.047l2.121-2.121c.563-.563 1.326-.879 2.122-.879zm9.817 1c0 1.104-.896 2-2 2h-4.06v-4h4.06c1.104 0 2 .895 2 2zm3.94 8.236v3.528l-2-1v-1.528l2-1zm2-3.236l-6 3v4l6 3v-10z"
     id="path1"
     style="fill:#fbfbfb;fill-opacity:1" />
</svg>
