<?xml version="1.0" encoding="UTF-8" standalone="no"?>
<svg
   width="13.721"
   height="14"
   viewBox="0 0 13.721 14"
   version="1.1"
   id="svg1"
   sodipodi:docname="icon-google.svg"
   inkscape:version="1.3.2 (091e20ef0f, 2023-11-25, custom)"
   xmlns:inkscape="http://www.inkscape.org/namespaces/inkscape"
   xmlns:sodipodi="http://sodipodi.sourceforge.net/DTD/sodipodi-0.dtd"
   xmlns="http://www.w3.org/2000/svg"
   xmlns:svg="http://www.w3.org/2000/svg">
  <defs
     id="defs1" />
  <sodipodi:namedview
     id="namedview1"
     pagecolor="#ffffff"
     bordercolor="#000000"
     borderopacity="0.25"
     inkscape:showpageshadow="2"
     inkscape:pageopacity="0.0"
     inkscape:pagecheckerboard="0"
     inkscape:deskcolor="#d1d1d1"
     inkscape:zoom="16.5625"
     inkscape:cx="2.9283019"
     inkscape:cy="0.39245283"
     inkscape:window-width="1920"
     inkscape:window-height="1015"
     inkscape:window-x="0"
     inkscape:window-y="0"
     inkscape:window-maximized="1"
     inkscape:current-layer="svg1" />
  <path
     style="fill:#2b2d31;fill-opacity:1"
     d="m 7,6 v 2.4 h 3.97 C 10.81,9.429 9.77,11.42 7,11.42 4.61,11.42 2.66,9.441 2.66,7 2.66,4.56 4.61,2.58 7,2.58 c 1.36,0 2.27,0.58 2.79,1.08 l 1.9,-1.83 C 10.47,0.69 8.89,0 7,0 3.13,0 0,3.13 0,7 c 0,3.87 3.13,7 7,7 4.04,0 6.721,-2.84 6.721,-6.84 C 13.721,6.7 13.67,6.35 13.61,6 Z"
     id="path1" />
</svg>
