<?xml version="1.0" encoding="UTF-8" standalone="no"?>
<svg
   height="24"
   viewBox="0 -960 960 960"
   width="24"
   version="1.1"
   id="svg1"
   sodipodi:docname="icon-camera.svg"
   inkscape:version="1.3.2 (091e20ef0f, 2023-11-25, custom)"
   xmlns:inkscape="http://www.inkscape.org/namespaces/inkscape"
   xmlns:sodipodi="http://sodipodi.sourceforge.net/DTD/sodipodi-0.dtd"
   xmlns="http://www.w3.org/2000/svg"
   xmlns:svg="http://www.w3.org/2000/svg">
  <defs
     id="defs1" />
  <sodipodi:namedview
     id="namedview1"
     pagecolor="#ffffff"
     bordercolor="#000000"
     borderopacity="0.25"
     inkscape:showpageshadow="2"
     inkscape:pageopacity="0.0"
     inkscape:pagecheckerboard="0"
     inkscape:deskcolor="#d1d1d1"
     inkscape:zoom="11.711456"
     inkscape:cx="1.9211958"
     inkscape:cy="13.44837"
     inkscape:window-width="1920"
     inkscape:window-height="1015"
     inkscape:window-x="0"
     inkscape:window-y="0"
     inkscape:window-maximized="1"
     inkscape:current-layer="svg1" />
  <path
     d="m160-800 80 160h120l-80-160h80l80 160h120l-80-160h80l80 160h120l-80-160h120q33 0 56.5 23.5T880-720v480q0 33-23.5 56.5T800-160H160q-33 0-56.5-23.5T80-240v-480q0-33 23.5-56.5T160-800Zm0 240v320h640v-320H160Zm0 0v320-320Z"
     id="path1"
     style="fill:#272a31;fill-opacity:1" />
  <rect
     style="fill:#272a31;fill-opacity:1;stroke:#ec5242;stroke-width:40;stroke-opacity:1"
     id="rect1"
     width="489.99579"
     height="16.846735"
     x="224.91103"
     y="-487.92493" />
  <rect
     style="fill:#ec5242;fill-opacity:1;stroke:#ec5242;stroke-width:40;stroke-opacity:1"
     id="rect1-5"
     width="489.99579"
     height="16.846735"
     x="225.33424"
     y="-388.3277" />
</svg>
