<?xml version="1.0" encoding="UTF-8" standalone="no"?>
<svg
   height="24"
   viewBox="0 -960 960 960"
   width="24"
   version="1.1"
   id="svg1"
   sodipodi:docname="icon-home.svg"
   inkscape:version="1.3.2 (091e20ef0f, 2023-11-25, custom)"
   xmlns:inkscape="http://www.inkscape.org/namespaces/inkscape"
   xmlns:sodipodi="http://sodipodi.sourceforge.net/DTD/sodipodi-0.dtd"
   xmlns="http://www.w3.org/2000/svg"
   xmlns:svg="http://www.w3.org/2000/svg">
  <defs
     id="defs1" />
  <sodipodi:namedview
     id="namedview1"
     pagecolor="#ffffff"
     bordercolor="#000000"
     borderopacity="0.25"
     inkscape:showpageshadow="2"
     inkscape:pageopacity="0.0"
     inkscape:pagecheckerboard="0"
     inkscape:deskcolor="#d1d1d1"
     inkscape:zoom="11.711456"
     inkscape:cx="-11.911414"
     inkscape:cy="10.459844"
     inkscape:window-width="1920"
     inkscape:window-height="1015"
     inkscape:window-x="0"
     inkscape:window-y="0"
     inkscape:window-maximized="1"
     inkscape:current-layer="svg1" />
  <path
     d="M160-120v-375l-72 55-48-64 120-92v-124h80v63l240-183 440 336-48 63-72-54v375H160Zm80-80h200v-160h80v160h200v-356L480-739 240-556v356Zm-80-560q0-50 35-85t85-35q17 0 28.5-11.5T320-920h80q0 50-35 85t-85 35q-17 0-28.5 11.5T240-760h-80Zm80 560h480-480Z"
     id="path1"
     style="fill:#ec5242;fill-opacity:1" />
</svg>
