<?xml version="1.0" encoding="UTF-8" standalone="no"?>
<!-- Created with Inkscape (http://www.inkscape.org/) -->

<svg
   width="66mm"
   height="24mm"
   viewBox="0 0 66 24"
   version="1.1"
   id="svg1672"
   inkscape:version="1.3.2 (091e20ef0f, 2023-11-25, custom)"
   sodipodi:docname="main-logo (copy 1).svg"
   xmlns:inkscape="http://www.inkscape.org/namespaces/inkscape"
   xmlns:sodipodi="http://sodipodi.sourceforge.net/DTD/sodipodi-0.dtd"
   xmlns="http://www.w3.org/2000/svg"
   xmlns:svg="http://www.w3.org/2000/svg">
  <sodipodi:namedview
     id="namedview1674"
     pagecolor="#fbfbfb"
     bordercolor="#000000"
     borderopacity="0.25"
     inkscape:showpageshadow="2"
     inkscape:pageopacity="0.0"
     inkscape:pagecheckerboard="0"
     inkscape:deskcolor="#d1d1d1"
     inkscape:document-units="mm"
     showgrid="true"
     inkscape:zoom="2.0838024"
     inkscape:cx="127.89121"
     inkscape:cy="77.022658"
     inkscape:window-width="1920"
     inkscape:window-height="1015"
     inkscape:window-x="0"
     inkscape:window-y="0"
     inkscape:window-maximized="1"
     inkscape:current-layer="g355" />
  <defs
     id="defs1669" />
  <g
     inkscape:label="Layer 1"
     inkscape:groupmode="layer"
     id="layer1"
     transform="translate(-32.170673,-34.635864)">
    <g
       id="g355"
       transform="matrix(1.2358193,0,0,0.99815771,-3.0165335,2.1594269)">
      <g
         id="g2"
         transform="translate(-9.531041,-3.6008377)">
        <text
           xml:space="preserve"
           style="font-style:normal;font-variant:normal;font-weight:600;font-stretch:normal;font-size:14.1519px;font-family:Lato;-inkscape-font-specification:'Lato, Semi-Bold';font-variant-ligatures:normal;font-variant-caps:normal;font-variant-numeric:normal;font-variant-east-asian:normal;white-space:pre;inline-size:90.1997;display:inline;fill:#272a31;fill-opacity:1;stroke-width:0.191;stroke-dasharray:none"
           x="93.136223"
           y="79.570625"
           id="text10035"
           transform="matrix(0.38493773,0,0,0.81879261,19.875224,-14.744563)"><tspan
             x="93.136223"
             y="79.570625"
             id="tspan2">Film Festival </tspan></text>
        <text
           xml:space="preserve"
           style="font-style:normal;font-variant:normal;font-weight:600;font-stretch:normal;font-size:4.90119px;font-family:Lato;-inkscape-font-specification:'Lato, Semi-Bold';font-variant-ligatures:normal;font-variant-caps:normal;font-variant-numeric:normal;font-variant-east-asian:normal;fill:#ec5242;fill-opacity:1;stroke-width:0.0603082;stroke-dasharray:none"
           x="66.117157"
           y="49.455791"
           id="text13265"
           transform="scale(0.84831472,1.1788078)"><tspan
             sodipodi:role="line"
             id="tspan13263"
             style="font-style:normal;font-variant:normal;font-weight:600;font-stretch:normal;font-size:4.90119px;font-family:Lato;-inkscape-font-specification:'Lato, Semi-Bold';font-variant-ligatures:normal;font-variant-caps:normal;font-variant-numeric:normal;font-variant-east-asian:normal;fill:#ec5242;fill-opacity:1;stroke-width:0.0603082"
             x="66.117157"
             y="49.455791">Chennai -2023</tspan></text>
        <path
           style="fill:#272a31;fill-opacity:1;stroke:#ec5242;stroke-width:0.109009;stroke-dasharray:none"
           id="path4177"
           sodipodi:type="arc"
           sodipodi:cx="39.406647"
           sodipodi:cy="38.371937"
           sodipodi:rx="2.1307294"
           sodipodi:ry="2.7411139"
           sodipodi:start="6.1473797"
           sodipodi:end="6.1538562"
           sodipodi:open="true"
           sodipodi:arc-type="arc"
           d="m 41.517758,38.000821 a 2.1307294,2.7411139 0 0 1 0.0018,0.0176" />
        <g
           id="g6"
           transform="matrix(0.68857695,0,0,0.82744355,38.888042,39.804843)">
          <path
             style="fill:#272a31;fill-opacity:1"
             d="M 10.644958,15.2573 H 7.8789583 l -5.588,5.586 1.414,1.414 4.557,-4.556 v 4.553 h 1.9999997 v -4.553 l 4.557,4.556 1.414,-1.414 z"
             id="path5" />
          <path
             style="fill:#272a31;fill-opacity:1"
             d="M 13.5,9 C 11.642,9 9.996,8.074 9,6.659 8.004,8.074 6.358,9 4.5,9 3.979,9 3.478,8.922 3,8.787 V 13.5 C 3,14.329 3.672,15 4.5,15 h 9 C 14.328,15 15,14.329 15,13.5 V 8.787 C 14.522,8.922 14.021,9 13.5,9 Z"
             id="path4" />
          <path
             style="fill:#ec5242;fill-opacity:1"
             d="m 4.9672243,1.349661 c -1.933,0 -3.5,1.567 -3.5,3.5 0,1.933 1.567,3.5 3.5,3.5 1.933,0 3.5,-1.567 3.5,-3.5 0,-1.933 -1.567,-3.5 -3.5,-3.5 z"
             id="path3" />
          <path
             style="fill:#ec5242;fill-opacity:1"
             d="m 16.607915,4.8844413 c 0,1.933 -1.567,3.5 -3.5,3.5 -1.933,0 -3.4999993,-1.567 -3.4999993,-3.5 0,-1.933 1.5669993,-3.5 3.4999993,-3.5 1.933,0 3.5,1.567 3.5,3.5 z"
             id="path2" />
          <path
             style="fill:#272a31;fill-opacity:1"
             d="m 21.462305,6.5424442 v 9.9999998 l -6,-3 V 9.5424442 Z"
             id="path1" />
        </g>
      </g>
    </g>
  </g>
</svg>
